<svg width="600" height="400" viewBox="0 0 600 400" xmlns="http://www.w3.org/2000/svg"><title>QCI</title><g fill="none" fill-rule="evenodd"><path d="M527.938 210H600v190H400V210h72.062M518 370V256h-36v114h36zm-42-160c3.676 9.391 12.794 16 23.527 16s19.85-6.609 23.526-16H476z" fill="#F99D34"/><path d="M400 0h200v190H400V0zm105.285 144c28.913 0 43.617-17.513 50.06-32.217l-28.747-13.218c-2.809 8.592-11.4 16.026-21.313 16.026-16.026 0-26.765-12.226-26.765-27.591s10.739-27.591 26.765-27.591c9.913 0 18.504 7.434 21.313 16.026l28.748-13.383C548.736 46.852 534.198 30 505.285 30c-34.53 0-60.635 22.965-60.635 57 0 33.87 26.104 57 60.635 57zM476 190c3.676-9.391 12.794-16 23.527-16s19.85 6.609 23.526 16H476z" fill="#BFD81C"/><path d="M0 0h380v400H0V0zm189.8 334.344c23.299 0 44.59-4.824 63.471-13.265L274.964 346l39.77-32.558-19.684-22.91c22.095-24.118 34.95-57.077 34.95-94.86C330 114.88 270.947 57 189.8 57 109.052 57 50 114.88 50 195.672c0 80.791 59.053 138.672 139.8 138.672zm0-50.646c-49.413 0-81.149-38.185-81.149-88.026 0-50.244 31.736-88.027 81.148-88.027 49.412 0 81.55 37.783 81.55 88.027 0 19.293-4.821 36.979-13.659 51.449l-29.727-34.97-39.369 32.558 29.326 34.568c-8.838 2.813-18.078 4.421-28.12 4.421z" fill="#754098"/></g></svg>